<svg height='300px' width='300px'  fill="#000000" xmlns="http://www.w3.org/2000/svg" xmlns:xlink="http://www.w3.org/1999/xlink" version="1.1" x="0px" y="0px" viewBox="0 0 24 24" enable-background="new 0 0 24 24" xml:space="preserve"><path fill-rule="evenodd" clip-rule="evenodd" d="M9.255,10.271c1.542-1.464,1.519-2.994,0-4.515  c0.248,1.133-0.371,2.788-2.237,4.596c-2.246,2.177-3.49,4.42-3.376,7.119c0.11,2.612,1.139,5.267,3.142,5.161  c4.421-0.232,7.206-4.065,8.33-8.7c0.771,2.718,0.906,5.023-1.004,6.672c1.209-0.141,1.562-0.981,2.468-2.278  c0.143,1.431,0.21,3.004-1.207,4.475c5.507-2.968,6.171-7.755,3.403-14.116c0.47,3.257-0.018,5.414-1.464,6.468  C18.271,8.856,16.509,4.206,12.021,1.2c0.827,3.232,0.926,5.978,0.122,8.176c-0.484,1.324-1.53,2.134-2.928,1.953  C8.658,11.256,8.748,10.752,9.255,10.271z"></path></svg>