<svg height='300px' width='300px'  fill="#000000" xmlns="http://www.w3.org/2000/svg" xmlns:xlink="http://www.w3.org/1999/xlink" viewBox="0 0 32 66" version="1.1" x="0px" y="0px"><title>torch</title><desc>Created with Sketch.</desc><g stroke="none" stroke-width="1" fill="none" fill-rule="evenodd"><g transform="translate(-194.000000, -418.000000)" fill="#000000"><g transform="translate(194.000000, 418.000000)"><path d="M13.5413113,20.5880834 C13.471156,20.3980464 13.2150779,19.6953968 13.1628437,19.553316 C13.0050009,19.1239725 12.8748932,18.7801849 12.7414606,18.4439849 C12.5520013,17.9666187 12.3661878,17.532158 12.1712127,17.1170011 C11.7127722,16.1408518 11.1561137,15.1318391 10.5222247,14.1034624 C9.89758291,13.0900875 9.23129198,12.1108792 8.56479363,11.1992105 C8.16270898,10.6492197 7.84633472,10.2394709 7.65763175,10.0053645 C6.72063781,8.84292244 4.886469,9.07982105 4.27557551,10.442186 C4.2406174,10.5201467 4.17759533,10.662674 4.09049357,10.862787 C3.9467604,11.1930086 3.78697342,11.566735 3.61510765,11.9770222 C3.12438377,13.1485044 2.6336945,14.3815876 2.17462748,15.6217678 C1.87318019,16.4361346 1.59516906,17.2277527 1.34540761,17.9887193 C0.486080913,20.6068934 0,22.7139732 0,24.2711026 C0,26.7927265 0.58529669,29.2348536 1.69354255,31.4420827 C2.18917735,32.4292098 3.39119336,32.8276431 4.37832047,32.3320083 C5.36544759,31.8363735 5.76388083,30.6343575 5.26824604,29.6472304 C4.43809856,27.9938737 4,26.1659249 4,24.2711026 C4,23.2573856 4.41136886,21.4741701 5.14593497,19.2361133 C5.37928491,18.5251489 5.64095146,17.7800709 5.92587759,17.0103364 C6.36379605,15.8272895 6.58448924,15.3637156 6.58448924,15.3637156 C6.76529393,15.6403521 6.94326441,15.9202829 7.11713203,16.2023534 C7.67658321,17.1099675 8.16181562,17.9895117 8.55061887,18.8173835 C8.70813844,19.1527871 8.86247272,19.5136444 9.02357324,19.9195571 C9.14252212,20.2192636 9.26142961,20.5334566 9.40851775,20.9335468 C9.45777906,21.067541 9.71510997,21.773628 9.78884643,21.9733659 C11.286765,26.0309401 12.7166995,27.8266581 16,27.8266581 C17.1045695,27.8266581 18,26.9312276 18,25.8266581 C18,24.7220886 17.1045695,23.8266581 16,23.8266581 C15.0090575,23.8266581 14.5016477,23.1894506 13.5413113,20.5880834 Z M32,24.2711026 C32,19.9716303 30.2936279,15.9373135 27.3137085,12.9573941 C27.0718485,12.715534 26.0486501,10.8022519 24.8151855,8.20792465 C24.6901301,7.94489767 24.5626292,7.67472771 24.4329035,7.39796117 C23.7984869,6.04444904 23.1378386,4.59160032 22.4905816,3.13838871 C22.263919,2.62948932 22.0551861,2.15703959 21.8692761,1.73329804 C21.7580292,1.47973493 21.6793376,1.29927821 21.638082,1.20416157 C21.0000778,-0.266785573 18.9773095,-0.426637968 18.1161799,0.925837808 C17.9539709,1.18060054 17.6846193,1.62825614 17.3436159,2.23654806 C16.7806862,3.24071872 16.2186043,4.33926675 15.692883,5.50128028 C14.7135032,7.66602557 13.9720975,9.80140787 13.5660934,11.8404155 C13.1269526,14.0458396 13.0959002,16.0642456 13.5727437,17.8569252 C13.8566804,18.9243772 14.9521974,19.5595418 16.0196494,19.275605 C17.0871014,18.9916683 17.722266,17.8961513 17.4383292,16.8286993 C17.1380118,15.6996646 17.1599366,14.2745556 17.4890797,12.6215547 C17.8283717,10.9175844 18.4738545,9.05847748 19.3372577,7.15007794 L19.6462421,6.56739479 C20.0377298,7.43039406 20.428626,8.27976665 20.8110244,9.09560418 C20.9437973,9.37887188 21.0744228,9.65566275 21.2027012,9.92546879 C22.7439902,13.1672382 23.7524836,15.0530234 24.4852814,15.7858212 C26.7224916,18.0230315 28,21.0434005 28,24.2711026 C28,26.1402632 27.5737111,27.9444309 26.7650276,29.5804418 C26.275568,30.5706454 26.6815012,31.7701494 27.6717047,32.259609 C28.6619083,32.7490686 29.8614123,32.3431354 30.3508719,31.3529319 C31.430499,29.1687872 32,26.7585077 32,24.2711026 Z"></path><path d="M21.4697193,40.5668979 L17.6022549,60.6777125 C17.4709084,61.3607145 16.6961486,62 16,62 C15.3048327,62 14.5286158,61.3582405 14.3977451,60.6777125 L9.96401289,37.6223052 C9.75541782,36.5376108 8.70699958,35.827392 7.62230521,36.0359871 C6.53761084,36.2445822 5.82739203,37.2930004 6.03598711,38.3776948 L10.4697193,61.4331021 C10.9626312,63.9962443 13.3862013,66 16,66 C18.6131459,66 21.0365843,64.0003234 21.5302807,61.4331021 L25.3977451,41.3222875 L25.9640129,38.3776948 C26.172608,37.2930004 25.4623892,36.2445822 24.3776948,36.0359871 C23.2930004,35.827392 22.2445822,36.5376108 22.0359871,37.6223052 L21.4697193,40.5668979 Z"></path><path d="M22,43 C23.1045695,43 24,42.1045695 24,41 C24,39.8954305 23.1045695,39 22,39 L10,39 C8.8954305,39 8,39.8954305 8,41 C8,42.1045695 8.8954305,43 10,43 L22,43 Z"></path><path d="M21,49 C22.1045695,49 23,48.1045695 23,47 C23,45.8954305 22.1045695,45 21,45 L11,45 C9.8954305,45 9,45.8954305 9,47 C9,48.1045695 9.8954305,49 11,49 L21,49 Z"></path></g></g></g></svg>